<?xml version="1.0" encoding="utf-8"?>
<!-- Generator: Adobe Illustrator 16.0.0, SVG Export Plug-In . SVG Version: 6.00 Build 0)  -->
<!DOCTYPE svg PUBLIC "-//W3C//DTD SVG 1.1//EN" "http://www.w3.org/Graphics/SVG/1.1/DTD/svg11.dtd">
<svg version="1.1" id="Capa_1" xmlns="http://www.w3.org/2000/svg" xmlns:xlink="http://www.w3.org/1999/xlink" x="0px" y="0px"
	 width="85.04px" height="15px" viewBox="0 31.687 85.04 15" enable-background="new 0 31.687 85.04 15" xml:space="preserve">
<path fill="#FFFFFF" d="M7.927,43.932c0.21,0.115,0.21,0.263,0.21,0.389v0.557c0,0.094-0.074,0.188-0.168,0.188
	c-0.053,0-0.095-0.042-0.126-0.042L0.861,41.36c-0.189-0.094-0.294-0.199-0.294-0.357v-0.557c0-0.126,0.053-0.283,0.221-0.357
	l7.055-3.685c0.042-0.021,0.094-0.042,0.147-0.042c0.073,0,0.147,0.053,0.147,0.168v0.536c0,0.115-0.053,0.283-0.221,0.357
	L1.68,40.709L7.927,43.932z"/>
<path fill="#FFFFFF" d="M83.381,40.688l-6.258-3.255c-0.168-0.073-0.221-0.241-0.221-0.356v-0.536c0-0.116,0.074-0.168,0.147-0.168
	c0.053,0,0.095,0.021,0.147,0.042l7.055,3.685c0.168,0.073,0.221,0.22,0.221,0.357v0.556c0,0.147-0.095,0.263-0.294,0.357
	l-6.981,3.664c-0.053,0-0.074,0.042-0.127,0.042c-0.115,0-0.168-0.095-0.168-0.189v-0.557c0-0.125,0-0.283,0.2-0.389L83.381,40.688z
	"/>
<g>
	<path fill="#2B2B2B" d="M10.74,32.719h0.84c0.095,0,0.168,0.053,0.168,0.158v9.984c0,0.829,0.189,1.113,0.882,1.113h0.21
		c0.168,0,0.168,0.115,0.168,0.231v0.672c0,0.115-0.073,0.168-0.168,0.188c-0.189,0.021-0.367,0.021-0.462,0.021
		c-1.512,0-1.806-0.808-1.806-2.11V32.898C10.583,32.803,10.625,32.719,10.74,32.719"/>
	<path fill="#2B2B2B" d="M25.145,45.045c-0.998,0-1.827-0.389-2.247-0.903l-0.042,0.021v0.631c0,0.115-0.042,0.157-0.168,0.157
		h-0.746c-0.115,0-0.168-0.021-0.168-0.137V32.898c0-0.116,0.053-0.168,0.168-0.168h0.861c0.116,0,0.137,0.052,0.137,0.157v4.452
		l0.052,0.021c0.42-0.462,1.271-0.861,2.268-0.861c2.205,0,3.013,1.575,3.013,3.181v2.299
		C28.273,43.764,27.181,45.045,25.145,45.045 M27.108,39.648c0-1.176-0.599-2.173-2.068-2.173c-1.229,0-2.089,0.977-2.089,2.152
		v2.341c0,1.176,0.861,2.089,2.068,2.089c1.438,0,2.089-0.882,2.089-2.11V39.648z"/>
	<path fill="#2B2B2B" d="M32.798,45.066c-2.068,0-3.265-1.165-3.265-3.149v-2.32c0-1.879,1.186-3.129,3.244-3.129
		c2.037,0,3.244,1.176,3.244,3.129v2.299C36.032,43.911,34.803,45.066,32.798,45.066 M34.877,39.617
		c0-1.229-0.693-2.131-2.068-2.131c-1.25,0-2.089,0.882-2.089,2.11v2.32c0,1.27,0.651,2.152,2.068,2.152s2.068-0.861,2.089-2.173
		V39.617z"/>
	<path fill="#2B2B2B" d="M48.242,34.609c0-0.074,0.042-0.158,0.157-0.189l0.809-0.189c0.137-0.042,0.189,0.052,0.189,0.157v2.068
		h2.109c0.096,0,0.158,0.042,0.158,0.157v0.672c0,0.115-0.042,0.168-0.158,0.168h-2.109v5.092c0,0.955,0.283,1.438,1.134,1.438
		c0.399,0,0.882-0.053,1.176-0.137c0.21-0.042,0.272,0.053,0.283,0.168l0.116,0.599c0.021,0.157,0,0.188-0.158,0.252
		c-0.389,0.157-1.134,0.21-1.596,0.21c-1.648,0-2.11-0.977-2.11-2.299V34.609z"/>
	<path fill="#2B2B2B" d="M56.178,45.066c-2.067,0-3.265-1.165-3.265-3.149v-2.32c0-1.879,1.187-3.129,3.244-3.129
		c2.037,0,3.244,1.176,3.244,3.129v2.299C59.402,43.911,58.174,45.066,56.178,45.066 M58.258,39.617
		c0-1.229-0.693-2.131-2.068-2.131c-1.25,0-2.09,0.882-2.09,2.11v2.32c0,1.27,0.65,2.152,2.068,2.152s2.068-0.861,2.09-2.173V39.617
		z"/>
	<path fill="#2B2B2B" d="M66.363,34.819c-0.42,0-0.767-0.326-0.767-0.788c0-0.42,0.347-0.746,0.767-0.746
		c0.44,0,0.787,0.326,0.787,0.746S66.793,34.819,66.363,34.819 M65.754,36.604c0-0.116,0.052-0.158,0.156-0.158h0.861
		c0.115,0,0.168,0.053,0.168,0.158v8.21c0,0.095-0.042,0.137-0.157,0.137h-0.86c-0.096,0-0.168-0.042-0.168-0.137V36.604z"/>
	<path fill="#2B2B2B" d="M17.543,36.446h-1.501c-0.073,0-0.126,0.053-0.126,0.126v0.767c0,0.074,0.053,0.126,0.126,0.126h1.386
		c1.438,0,1.9,0.746,1.9,1.785v0.83l-0.073,0.042c-0.462-0.515-1.271-0.809-1.953-0.809c-1.953,0-3.013,1.292-3.013,2.898
		c0,1.69,1.018,2.855,2.855,2.855c0.84,0,1.69-0.272,2.184-0.944l0.095,0.021v0.672c0,0.053,0.021,0.137,0.136,0.137h0.788
		c0.094,0,0.157-0.063,0.157-0.168v-5.375C20.494,37.56,19.727,36.446,17.543,36.446 M17.313,44.089
		c-1.344,0-1.942-0.84-1.942-1.921c0-1.061,0.725-1.921,1.953-1.921c1.25,0,1.921,0.861,1.921,1.9
		C19.244,43.218,18.457,44.089,17.313,44.089"/>
	<path fill="#2B2B2B" d="M44.01,36.446h-1.501c-0.073,0-0.126,0.053-0.126,0.126v0.767c0,0.074,0.053,0.126,0.126,0.126h1.386
		c1.438,0,1.9,0.746,1.9,1.785v0.83l-0.073,0.042c-0.462-0.515-1.271-0.809-1.952-0.809c-1.954,0-3.014,1.292-3.014,2.898
		c0,1.69,1.018,2.855,2.855,2.855c0.84,0,1.69-0.272,2.184-0.944l0.095,0.021v0.672c0,0.053,0.021,0.137,0.137,0.137h0.787
		c0.095,0,0.157-0.063,0.157-0.168v-5.375C46.961,37.56,46.195,36.446,44.01,36.446 M43.78,44.089c-1.344,0-1.942-0.84-1.942-1.921
		c0-1.061,0.725-1.921,1.953-1.921c1.249,0,1.921,0.861,1.921,1.9C45.722,43.218,44.934,44.089,43.78,44.089"/>
	<path fill="#2B2B2B" d="M71.497,36.446h-1.502c-0.072,0-0.125,0.053-0.125,0.126v0.767c0,0.074,0.053,0.126,0.125,0.126h1.387
		c1.438,0,1.9,0.746,1.9,1.785v0.83l-0.074,0.042c-0.461-0.515-1.27-0.809-1.952-0.809c-1.953,0-3.013,1.292-3.013,2.898
		c0,1.69,1.018,2.855,2.855,2.855c0.84,0,1.689-0.272,2.184-0.944l0.094,0.021v0.672c0,0.053,0.021,0.137,0.137,0.137h0.787
		c0.095,0,0.158-0.063,0.158-0.168v-5.375C74.447,37.56,73.68,36.446,71.497,36.446 M71.266,44.089c-1.344,0-1.943-0.84-1.943-1.921
		c0-1.061,0.725-1.921,1.953-1.921c1.25,0,1.922,0.861,1.922,1.9C73.198,43.218,72.411,44.089,71.266,44.089"/>
	<path fill="#2B2B2B" d="M40.473,37.475c-1.386,0-1.995,1.218-1.995,2.52v4.798c0,0.115-0.042,0.157-0.158,0.157h-0.861
		c-0.094,0-0.168-0.042-0.168-0.137V36.73c0-0.116,0.053-0.158,0.158-0.158h0.745c0.116,0,0.158,0.063,0.158,0.158v1.061h0.052
		c0.462-0.746,1.365-1.344,2.32-1.344h0.273c0.074,0,0.126,0.053,0.126,0.126v0.777c0,0.074-0.052,0.126-0.126,0.126H40.473z"/>
	<path fill="#2B2B2B" d="M63.854,37.475c-1.387,0-1.995,1.218-1.995,2.52v4.798c0,0.115-0.042,0.157-0.157,0.157H60.84
		c-0.094,0-0.168-0.042-0.168-0.137V36.73c0-0.116,0.053-0.158,0.158-0.158h0.744c0.116,0,0.158,0.063,0.158,0.158v1.061h0.053
		c0.461-0.746,1.364-1.344,2.32-1.344h0.272c0.073,0,0.126,0.053,0.126,0.126v0.777c0,0.074-0.053,0.126-0.126,0.126H63.854z"/>
</g>
</svg>
